<svg xmlns="http://www.w3.org/2000/svg" viewBox="0 0 900 190" role="img" aria-label="Grok CLI on Smart Pi One">
  <defs>
    <linearGradient id="gkbg" x1="0" y1="0" x2="1" y2="1">
      <stop offset="0" stop-color="#1c1e24"/>
      <stop offset="1" stop-color="#141519"/>
    </linearGradient>
    <radialGradient id="gkglow" cx="0.12" cy="0.5" r="0.5">
      <stop offset="0" stop-color="#ffffff" stop-opacity="0.14"/>
      <stop offset="1" stop-color="#ffffff" stop-opacity="0"/>
    </radialGradient>
  </defs>
  <rect x="1" y="1" width="898" height="188" rx="18" fill="url(#gkbg)" stroke="#2f323b" stroke-width="1.5"/>
  <rect x="1" y="1" width="898" height="188" rx="18" fill="url(#gkglow)"/>
  <g transform="translate(44,47)">
    <rect x="-3" y="-3" width="102" height="102" rx="24" fill="none" stroke="#3a3e48" stroke-width="1.5"/>
    <g transform="scale(0.1875)">
      <path d="M115.612 0h280.776C459.975 0 512 52.026 512 115.612v278.416c0 63.587-52.025 115.613-115.612 115.613H115.612C52.026 509.641 0 457.615 0 394.028V115.612C0 52.026 52.026 0 115.612 0z"/>
      <path fill="#fff" d="M213.235 306.019l178.976-180.002v.169l51.695-51.763c-.924 1.32-1.86 2.605-2.785 3.89-39.281 54.164-58.46 80.649-43.07 146.922l-.09-.101c10.61 45.11-.744 95.137-37.398 131.836-46.216 46.306-120.167 56.611-181.063 14.928l42.462-19.675c38.863 15.278 81.392 8.57 111.947-22.03 30.566-30.6 37.432-75.159 22.065-112.252-2.92-7.025-11.67-8.795-17.792-4.263l-124.947 92.341zm-25.786 22.437l-.033.034L68.094 435.217c7.565-10.429 16.957-20.294 26.327-30.149 26.428-27.803 52.653-55.359 36.654-94.302-21.422-52.112-8.952-113.177 30.724-152.898 41.243-41.254 101.98-51.661 152.706-30.758 11.23 4.172 21.016 10.114 28.638 15.639l-42.359 19.584c-39.44-16.563-84.629-5.299-112.207 22.313-37.298 37.308-44.84 102.003-1.128 143.81z"/>
    </g>
  </g>
  <text x="192" y="82" font-family="system-ui,-apple-system,Segoe UI,Roboto,sans-serif" font-size="42" font-weight="700" fill="#f5f5f4">Grok CLI</text>
  <text x="194" y="114" font-family="system-ui,-apple-system,Segoe UI,Roboto,sans-serif" font-size="18" fill="#a8a29e">xAI&#8217;s Grok CLI &#8212; running on Allwinner H3 via QEMU</text>
  <g font-family="ui-monospace,SFMono-Regular,Menlo,monospace" font-size="14">
    <rect x="194" y="132" width="214" height="28" rx="14" fill="#2a2d35" stroke="#3a3e48"/>
    <text x="210" y="150"><tspan fill="#e5e7eb">armv7l</tspan><tspan fill="#8b8f99">  &#183;  Smart Pi One</tspan></text>
    <rect x="418" y="132" width="238" height="28" rx="14" fill="#2a2d35" stroke="#3a3e48"/>
    <text x="434" y="150" fill="#c9cdd6">No API key &#183; X / grok.com</text>
  </g>
  <text x="872" y="34" text-anchor="end" font-family="ui-monospace,SFMono-Regular,Menlo,monospace" font-size="13" fill="#5b6270">YUMI&#183;LAB</text>
</svg>
