<svg xmlns="http://www.w3.org/2000/svg" viewBox="0 0 900 190" role="img" aria-label="Kimi CLI on Smart Pi One">
  <defs>
    <linearGradient id="kmbg" x1="0" y1="0" x2="1" y2="1">
      <stop offset="0" stop-color="#1c1e24"/>
      <stop offset="1" stop-color="#141519"/>
    </linearGradient>
    <radialGradient id="kmglow" cx="0.12" cy="0.5" r="0.5">
      <stop offset="0" stop-color="#7c74f0" stop-opacity="0.24"/>
      <stop offset="1" stop-color="#7c74f0" stop-opacity="0"/>
    </radialGradient>
  </defs>
  <rect x="1" y="1" width="898" height="188" rx="18" fill="url(#kmbg)" stroke="#2f323b" stroke-width="1.5"/>
  <rect x="1" y="1" width="898" height="188" rx="18" fill="url(#kmglow)"/>
  <g transform="translate(44,47)">
    <rect x="-3" y="-3" width="102" height="102" rx="24" fill="#0a0a0a" stroke="#3a3e48" stroke-width="1.5"/>
    <g transform="translate(17,18) scale(2.583)">
      <path fill="#fff" d="M21.765.351C22.998.351 24 1.353 24 2.586S22.998 4.82 21.765 4.82h-1.974c-.15 0-.26-.12-.26-.26V2.586A2.237 2.237 0 0 1 21.765.35M9.41 13.388l8.447-8.377c.16-.16.07-.471-.14-.471h-4.55s-.1.02-.14.06l-9.099 9.029c-.14.14-.35.02-.35-.21V4.81c0-.15-.1-.27-.221-.27H.22c-.12 0-.22.12-.22.27v18.57c0 .15.1.27.22.27h3.137c.12 0 .22-.12.22-.27v-3.79c0-.08.03-.16.08-.21l2.826-2.796c.07-.07.16-.08.241-.03l7.546 5.551a8.9 8.9 0 0 0 4.018 1.493c.12.01.23-.11.23-.27V19.76c0-.14-.08-.25-.19-.26a5.8 5.8 0 0 1-2.355-.942l-6.533-4.73c-.14-.09-.15-.32-.03-.441"/>
    </g>
  </g>
  <text x="192" y="82" font-family="system-ui,-apple-system,Segoe UI,Roboto,sans-serif" font-size="42" font-weight="700" fill="#f5f5f4">Kimi CLI</text>
  <text x="194" y="114" font-family="system-ui,-apple-system,Segoe UI,Roboto,sans-serif" font-size="18" fill="#a8a29e">Moonshot AI&#8217;s Kimi CLI &#8212; native Python on 32-bit ARM</text>
  <g font-family="ui-monospace,SFMono-Regular,Menlo,monospace" font-size="14">
    <rect x="194" y="132" width="214" height="28" rx="14" fill="#2a2d35" stroke="#3a3e48"/>
    <text x="210" y="150"><tspan fill="#8b93f8">armv7l</tspan><tspan fill="#8b8f99">  &#183;  Smart Pi One</tspan></text>
    <rect x="418" y="132" width="240" height="28" rx="14" fill="#2a2d35" stroke="#3a3e48"/>
    <text x="434" y="150" fill="#c9cdd6">Kimi account &#183; OAuth or API key</text>
  </g>
  <text x="872" y="34" text-anchor="end" font-family="ui-monospace,SFMono-Regular,Menlo,monospace" font-size="13" fill="#5b6270">YUMI&#183;LAB</text>
</svg>
