<svg xmlns="http://www.w3.org/2000/svg" viewBox="0 0 900 190" role="img" aria-label="Vibe CLI on Smart Pi One">
  <defs>
    <linearGradient id="vbbg" x1="0" y1="0" x2="1" y2="1">
      <stop offset="0" stop-color="#1c1e24"/>
      <stop offset="1" stop-color="#141519"/>
    </linearGradient>
    <radialGradient id="vbglow" cx="0.12" cy="0.5" r="0.5">
      <stop offset="0" stop-color="#ff8205" stop-opacity="0.26"/>
      <stop offset="1" stop-color="#ff8205" stop-opacity="0"/>
    </radialGradient>
  </defs>
  <rect x="1" y="1" width="898" height="188" rx="18" fill="url(#vbbg)" stroke="#2f323b" stroke-width="1.5"/>
  <rect x="1" y="1" width="898" height="188" rx="18" fill="url(#vbglow)"/>
  <g transform="translate(44,61) scale(0.744)">
    <g fill-rule="nonzero">
      <rect x="18.292" y="0" width="18.293" height="18.123" fill="#ffd800"/>
      <rect x="91.473" y="0" width="18.293" height="18.123" fill="#ffd800"/>
      <rect x="18.292" y="18.121" width="36.586" height="18.123" fill="#ffaf00"/>
      <rect x="73.181" y="18.121" width="36.586" height="18.123" fill="#ffaf00"/>
      <rect x="18.292" y="36.243" width="91.476" height="18.122" fill="#ff8205"/>
      <rect x="18.292" y="54.37" width="18.293" height="18.123" fill="#fa500f"/>
      <rect x="54.883" y="54.37" width="18.293" height="18.123" fill="#fa500f"/>
      <rect x="91.473" y="54.37" width="18.293" height="18.123" fill="#fa500f"/>
      <rect x="0" y="72.504" width="54.89" height="18.123" fill="#e10500"/>
      <rect x="73.181" y="72.504" width="54.89" height="18.123" fill="#e10500"/>
    </g>
  </g>
  <text x="192" y="82" font-family="system-ui,-apple-system,Segoe UI,Roboto,sans-serif" font-size="42" font-weight="700" fill="#f5f5f4">Vibe CLI</text>
  <text x="194" y="114" font-family="system-ui,-apple-system,Segoe UI,Roboto,sans-serif" font-size="18" fill="#a8a29e">Mistral&#8217;s Vibe CLI &#8212; native Python on 32-bit ARM</text>
  <g font-family="ui-monospace,SFMono-Regular,Menlo,monospace" font-size="14">
    <rect x="194" y="132" width="214" height="28" rx="14" fill="#2a2d35" stroke="#3a3e48"/>
    <text x="210" y="150"><tspan fill="#ff8205">armv7l</tspan><tspan fill="#8b8f99">  &#183;  Smart Pi One</tspan></text>
    <rect x="418" y="132" width="252" height="28" rx="14" fill="#2a2d35" stroke="#3a3e48"/>
    <text x="434" y="150" fill="#c9cdd6">Mistral account or API key</text>
  </g>
  <text x="872" y="34" text-anchor="end" font-family="ui-monospace,SFMono-Regular,Menlo,monospace" font-size="13" fill="#5b6270">YUMI&#183;LAB</text>
</svg>
