<svg xmlns="http://www.w3.org/2000/svg" viewBox="0 0 900 190" role="img" aria-label="Debian 14 Forky · MATE on Smart Pi One">
  <defs>
    <linearGradient id="d14mbg" x1="0" y1="0" x2="1" y2="1">
      <stop offset="0" stop-color="#1c1e24"/>
      <stop offset="1" stop-color="#141519"/>
    </linearGradient>
    <radialGradient id="d14mglow" cx="0.12" cy="0.5" r="0.5">
      <stop offset="0" stop-color="#A81D33" stop-opacity="0.24"/>
      <stop offset="1" stop-color="#A81D33" stop-opacity="0"/>
    </radialGradient>
  </defs>
  <rect x="1" y="1" width="898" height="188" rx="18" fill="url(#d14mbg)" stroke="#2f323b" stroke-width="1.5"/>
  <rect x="1" y="1" width="898" height="188" rx="18" fill="url(#d14mglow)"/>
  <rect x="6.5" y="6.5" width="887" height="177" rx="13" fill="none" stroke="#A81D33" stroke-opacity="0.28" stroke-width="1.5" stroke-dasharray="7 7"/>
  <g transform="translate(44,44) scale(3.5)">
    <path fill="#D94A62" d="M13.88 12.685c-.4 0 .08.2.601.28.14-.1.27-.22.39-.33a3 3 0 0 1-.99.05m2.14-.53c.23-.33.4-.69.47-1.06-.06.27-.2.5-.33.73-.75.47-.07-.27 0-.56-.8 1.01-.11.6-.14.89m.781-2.05c.05-.721-.14-.501-.2-.221.07.04.13.5.2.22M12.38.31c.2.04.45.07.42.12.23-.05.28-.1-.43-.12m.43.12-.15.03.14-.01V.43m6.633 9.944c.02.64-.2.95-.38 1.5l-.35.181c-.28.54.03.35-.17.78-.44.39-1.34 1.22-1.62 1.301-.201 0 .14-.25.19-.34-.591.4-.481.6-1.371.85l-.03-.06c-2.221 1.04-5.303-1.02-5.253-3.842-.03.17-.07.13-.12.2a3.55 3.55 0 0 1 2.001-3.501 3.36 3.36 0 0 1 3.732.48 3.34 3.34 0 0 0-2.721-1.3c-1.18.01-2.281.76-2.651 1.57-.6.38-.67 1.47-.93 1.661-.361 2.601.66 3.722 2.38 5.042.27.19.08.21.12.35a4.7 4.7 0 0 1-1.53-1.16c.23.33.47.66.8.91-.55-.18-1.27-1.3-1.48-1.35.93 1.66 3.78 2.921 5.261 2.3a6.2 6.2 0 0 1-2.33-.28c-.33-.16-.77-.51-.7-.57a5.802 5.803 0 0 0 5.902-.84c.44-.35.93-.94 1.07-.95-.2.32.04.16-.12.44.44-.72-.2-.3.46-1.24l.24.33c-.09-.6.74-1.321.66-2.262.19-.3.2.3 0 .97.29-.74.08-.85.15-1.46.08.2.18.42.23.63-.18-.7.2-1.2.28-1.6-.09-.05-.28.3-.32-.53 0-.37.1-.2.14-.28-.08-.05-.26-.32-.38-.861.08-.13.22.33.34.34-.08-.42-.2-.75-.2-1.08-.34-.68-.12.1-.4-.3-.34-1.091.3-.25.34-.74.54.77.84 1.96.981 2.46-.1-.6-.28-1.2-.49-1.76.16.07-.26-1.241.21-.37A7.82 7.82 0 0 0 17.702 1.6c.18.17.42.39.33.42-.75-.45-.62-.48-.73-.67-.61-.25-.65.02-1.06 0C15.082.73 14.862.8 13.8.4l.05.23c-.77-.25-.9.1-1.73 0-.05-.04.27-.14.53-.18-.741.1-.701-.14-1.431.03.17-.13.36-.21.55-.32-.6.04-1.44.35-1.18.07C9.6.68 7.847 1.3 6.867 2.22L6.838 2c-.45.54-1.96 1.611-2.08 2.311l-.131.03c-.23.4-.38.85-.57 1.261-.3.52-.45.2-.4.28-.6 1.22-.9 2.251-1.16 3.102.18.27 0 1.65.07 2.76-.3 5.463 3.84 10.776 8.363 12.006.67.23 1.65.23 2.49.25-.99-.28-1.12-.15-2.08-.49-.7-.32-.85-.7-1.34-1.13l.2.35c-.971-.34-.57-.42-1.361-.67l.21-.27c-.31-.03-.83-.53-.97-.81l-.34.01c-.41-.501-.63-.871-.61-1.161l-.111.2c-.13-.21-1.52-1.901-.8-1.511-.13-.12-.31-.2-.5-.55l.14-.17c-.35-.44-.64-1.02-.62-1.2.2.24.32.3.45.33-.88-2.172-.93-.12-1.601-2.202l.15-.02c-.1-.16-.18-.34-.26-.51l.06-.6c-.63-.74-.18-3.102-.09-4.402.07-.54.53-1.1.88-1.981l-.21-.04c.4-.71 2.341-2.872 3.241-2.761.43-.55-.09 0-.18-.14.96-.991 1.26-.7 1.901-.88.7-.401-.6.16-.27-.151 1.2-.3.85-.7 2.421-.85.16.1-.39.14-.52.26 1-.49 3.151-.37 4.562.27 1.63.77 3.461 3.011 3.531 5.132l.08.02c-.04.85.13 1.821-.17 2.711l.2-.42M9.54 13.236l-.05.28c.26.35.47.73.8 1.01-.24-.47-.42-.66-.75-1.3m.62-.02c-.14-.15-.22-.34-.31-.52.08.32.26.6.43.88zm10.945-2.382-.07.15c-.1.76-.34 1.511-.69 2.212.4-.73.65-1.541.75-2.362M12.45.12c.27-.1.66-.05.95-.12-.37.03-.74.05-1.1.1zM3.006 5.142c.07.57-.43.8.11.42.3-.66-.11-.18-.1-.42m-.64 2.661c.12-.39.15-.62.2-.84-.35.44-.17.53-.2.83"/>
  </g>
  <g transform="translate(112,104)">
    <circle cx="24" cy="24" r="25" fill="#1c1e24" stroke="#3a3e48" stroke-width="1.5"/>
    <g transform="translate(9,9) scale(1.25)">
      <path fill="#84A454" d="M12 0C5.373 0 0 5.372 0 12c0 6.627 5.373 12 12 12s12-5.373 12-12c0-6.628-5.373-12-12-12m2.005 3.245L18.667 6 14 8.755ZM12 4.66c.342 0 .676.028 1.005.073v1.021A6.33 6.33 0 0 0 6.12 9.63l-.865-.51C6.378 6.503 8.978 4.66 12 4.66m0 2.495c.342 0 .677.041 1 .11v1.036a3.9 3.9 0 0 0-1-.13 3.81 3.81 0 0 0-3.672 2.76l-.896-.531A4.855 4.855 0 0 1 12 7.156Zm5.885.464A7.3 7.3 0 0 1 19.34 12a7.3 7.3 0 0 1-1.5 4.437l-.87-.515A6.3 6.3 0 0 0 18.329 12a6.3 6.3 0 0 0-1.313-3.865zm-2.171 1.286a4.81 4.81 0 0 1-.047 6.25l-.891-.526A3.8 3.8 0 0 0 15.828 12c0-.996-.377-1.899-.995-2.578zm-12.209.339L8.167 12 3.5 14.755Zm4.823 3.823A3.81 3.81 0 0 0 12 15.823c.346 0 .681-.047 1-.13v1.041a4.8 4.8 0 0 1-1 .11c-2.106 0-3.906-1.362-4.568-3.25zM6.12 14.37A6.33 6.33 0 0 0 12 18.328q.509 0 .995-.078v1.016a7 7 0 0 1-.995.073c-3.022 0-5.622-1.842-6.745-4.459zm7.88.963 4.661 2.75-4.666 2.756z"/>
    </g>
  </g>
  <text x="192" y="82" font-family="system-ui,-apple-system,Segoe UI,Roboto,sans-serif" font-size="42" font-weight="700" fill="#f5f5f4">Debian 14 Forky · MATE</text>
  <text x="194" y="114" font-family="system-ui,-apple-system,Segoe UI,Roboto,sans-serif" font-size="18" fill="#a8a29e">MATE desktop on the next Debian — in preparation</text>
  <g font-family="ui-monospace,SFMono-Regular,Menlo,monospace" font-size="14">
    <rect x="194" y="132" width="209" height="28" rx="14" fill="#2a2d35" stroke="#3a3e48"/>
    <text x="210" y="150"><tspan fill="#A81D33">armv7l</tspan><tspan fill="#8b8f99">  ·  32-bit ARM</tspan></text>
    <rect x="413" y="132" width="124" height="28" rx="14" fill="#2a2d35" stroke="#3a3e48"/>
    <text x="429" y="150" fill="#A81D33">Coming soon</text>
  </g>
      <g transform="translate(785.7,39.0) scale(0.00695)">
        <path fill="#FFC72C" d="M662.0013427734375 30.0Q506.667724609375 30.0 382.16748046875 -23.50018310546875Q257.667236328125 -77.0003662109375 177.1671142578125 -176.33407592773438Q96.6669921875 -275.66778564453125 73.333740234375 -412.6683349609375L290.671142578125 -446.002197265625Q323.67095947265625 -314.002685546875 428.6702880859375 -240.66973876953125Q533.6696166992188 -167.3367919921875 674.001708984375 -167.3367919921875Q760.6671752929688 -167.3367919921875 833.9998779296875 -194.66973876953125Q907.3325805664062 -222.002685546875 951.6656799316406 -273.5020446777344Q995.998779296875 -325.00140380859375 995.998779296875 -397.333984375Q995.998779296875 -436.33294677734375 982.6658630371094 -466.3323669433594Q969.3329467773438 -496.331787109375 945.5001525878906 -518.4981994628906Q921.6673583984375 -540.6646118164062 888.3343811035156 -557.3312377929688Q855.0014038085938 -573.9978637695312 815.3345947265625 -585.9979248046875L446.0009765625 -695.331298828125Q392.001708984375 -710.9977416992188 336.16839599609375 -736.6641845703125Q280.3350830078125 -762.3306274414062 233.6680908203125 -803.6639404296875Q187.0010986328125 -844.9972534179688 158.16741943359375 -906.6642761230469Q129.333740234375 -968.331298828125 129.333740234375 -1055.9989013671875Q129.333740234375 -1189.3329467773438 197.83401489257812 -1281.8331604003906Q266.33428955078125 -1374.3333740234375 383.00128173828125 -1421.8333435058594Q499.66827392578125 -1469.3333129882812 644.66845703125 -1468.6666259765625Q791.001953125 -1467.333251953125 906.3353881835938 -1417.3333129882812Q1021.6688232421875 -1367.3333740234375 1098.1689758300781 -1273.5000610351562Q1174.6691284179688 -1179.666748046875 1204.0028076171875 -1047.333251953125L979.99853515625 -1008.6658935546875Q964.6651611328125 -1090.3318481445312 915.9988403320312 -1148.8312072753906Q867.33251953125 -1207.33056640625 795.9999084472656 -1238.6635131835938Q724.6672973632812 -1269.9964599609375 642.001708984375 -1271.329833984375Q561.6693725585938 -1272.6632080078125 495.5032958984375 -1246.6636047363281Q429.33721923828125 -1220.6640014648438 389.6708068847656 -1173.9979248046875Q350.00439453125 -1127.3318481445312 350.00439453125 -1065.9991455078125Q350.00439453125 -1005.9999389648438 384.8373718261719 -969.1670532226562Q419.67034912109375 -932.3341674804688 471.3365478515625 -910.8343811035156Q523.0027465820312 -889.3345947265625 574.00244140625 -875.334716796875L840.00146484375 -800.0018310546875Q890.0018310546875 -786.3350830078125 953.6687622070312 -762.8350219726562Q1017.335693359375 -739.3349609375 1076.8358764648438 -697.0015563964844Q1136.3360595703125 -654.6681518554688 1175.1694946289062 -585.5013732910156Q1214.0029296875 -516.3345947265625 1214.0029296875 -410.667724609375Q1214.0029296875 -302.33392333984375 1170.0026550292969 -219.66702270507812Q1126.0023803710938 -137.0001220703125 1049.3353881835938 -81.66671752929688Q972.6683959960938 -26.33331298828125 873.0014953613281 1.833343505859375Q773.3345947265625 30.0 662.0013427734375 30.0Z M2641.0003662109375 0.0 2641.6669921875 -673.3311767578125Q2641.6669921875 -789.6639404296875 2581.6675720214844 -855.16357421875Q2521.6681518554688 -920.6632080078125 2423.668701171875 -920.6632080078125Q2364.3355102539062 -920.6632080078125 2314.502655029297 -893.3299255371094Q2264.6697998046875 -865.9966430664062 2234.1702270507812 -811.3304138183594Q2203.670654296875 -756.6641845703125 2203.670654296875 -675.33203125L2103.003173828125 -726.000244140625Q2101.3366088867188 -839.666748046875 2151.8367309570312 -925.6666870117188Q2202.3368530273438 -1011.6666259765625 2289.336944580078 -1059.4999389648438Q2376.3370361328125 -1107.333251953125 2484.3370361328125 -1107.333251953125Q2658.6710205078125 -1107.333251953125 2754.8375854492188 -1002.3329772949219Q2851.004150390625 -897.3327026367188 2851.004150390625 -723.33251953125L2850.3375244140625 0.0ZM1345.6666259765625 0.0V-1080.0H1531.669921875V-767.9971923828125H1556.337158203125V0.0ZM1994.33349609375 0.0 1995.0001220703125 -668.664794921875Q1995.0001220703125 -786.6641235351562 1935.5006713867188 -853.6636657714844Q1876.001220703125 -920.6632080078125 1775.6685791015625 -920.6632080078125Q1677.0027465820312 -920.6632080078125 1616.6699523925781 -852.9971008300781Q1556.337158203125 -785.3309936523438 1556.337158203125 -675.33203125L1455.669677734375 -739.3330078125Q1455.669677734375 -844.6663818359375 1506.6697998046875 -927.8330993652344Q1557.669921875 -1010.9998168945312 1644.8367309570312 -1059.1665344238281Q1732.0035400390625 -1107.333251953125 1841.6702880859375 -1107.333251953125Q1956.6710205078125 -1107.333251953125 2037.6710510253906 -1058.4996032714844Q2118.6710815429688 -1009.6659545898438 2161.170867919922 -922.665771484375Q2203.670654296875 -835.6655883789062 2203.670654296875 -721.3326416015625L2203.0040283203125 0.0Z M3335.6663818359375 30.0Q3216.333251953125 30.0 3134.999969482422 -14.333343505859375Q3053.6666870117188 -58.66668701171875 3012.3333435058594 -132.33340454101562Q2971.0 -206.0001220703125 2971.0 -294.000244140625Q2971.0 -375.66650390625 3000.166290283203 -437.8331604003906Q3029.3325805664062 -499.99981689453125 3085.9989318847656 -543.6667175292969Q3142.665283203125 -587.3336181640625 3226.3321533203125 -614.0006103515625Q3297.664794921875 -635.0006713867188 3388.8309631347656 -651.1673889160156Q3479.9971313476562 -667.3341064453125 3580.3307495117188 -681.0008850097656Q3680.6643676757812 -694.6676635742188 3779.666015625 -709.3345947265625L3704.331298828125 -666.667236328125Q3705.9978637695312 -794.3319702148438 3650.4984436035156 -855.4976501464844Q3594.9990234375 -916.663330078125 3460.333984375 -916.663330078125Q3375.002197265625 -916.663330078125 3304.169219970703 -877.1639709472656Q3233.3362426757812 -837.6646118164062 3205.0030517578125 -746.6656494140625L3010.333251953125 -806.666748046875Q3049.6666870117188 -945.999755859375 3162.166717529297 -1027.9998779296875Q3274.666748046875 -1110.0 3461.667236328125 -1110.0Q3607.0004272460938 -1110.0 3714.333984375 -1060.3336791992188Q3821.6675415039062 -1010.6673583984375 3871.66796875 -904.0006103515625Q3897.6683349609375 -850.6668701171875 3903.6683349609375 -791.6668090820312Q3909.6683349609375 -732.666748046875 3909.6683349609375 -665.3330078125V0.0H3724.9984130859375V-246.6651611328125L3760.998291015625 -215.3309326171875Q3693.99755859375 -91.33184814453125 3590.3316345214844 -30.665924072265625Q3486.6657104492188 30.0 3335.6663818359375 30.0ZM3373.0009765625 -140.6693115234375Q3462.0001220703125 -140.6693115234375 3526.166015625 -172.33566284179688Q3590.3319091796875 -204.00201416015625 3629.1647338867188 -253.16775512695312Q3667.99755859375 -302.33349609375 3680.330810546875 -354.6650390625Q3696.9977416992188 -402.664794921875 3699.3311462402344 -462.9980163574219Q3701.66455078125 -523.3312377929688 3701.66455078125 -558.664794921875L3769.665283203125 -533.9984130859375Q3671.33056640625 -518.9981079101562 3590.164276123047 -507.1646728515625Q3508.9979858398438 -495.33123779296875 3443.6658325195312 -483.4979553222656Q3378.3336791992188 -471.6646728515625 3327.0013427734375 -455.9981689453125Q3284.0015258789062 -441.3314208984375 3250.335418701172 -420.3315734863281Q3216.6693115234375 -399.33172607421875 3197.1697998046875 -368.9989013671875Q3177.6702880859375 -338.66607666015625 3177.6702880859375 -296.0003662109375Q3177.6702880859375 -254.00067138671875 3198.670135498047 -218.66787719726562Q3219.6699829101562 -183.3350830078125 3262.8360900878906 -162.002197265625Q3306.002197265625 -140.6693115234375 3373.0009765625 -140.6693115234375Z M4090.0 0V-1080H4276.0032958984375V-817.9998779296875L4250.0032958984375 -851.9998779296875Q4269.6700439453125 -904.0001220703125 4301.670227050781 -947.3336181640625Q4333.67041015625 -990.6671142578125 4376.0042724609375 -1018.667236328125Q4416.670837402344 -1049.0001831054688 4467.503875732422 -1065.5Q4518.3369140625 -1081.9998168945312 4571.336669921875 -1085.4998168945312Q4624.33642578125 -1088.9998168945312 4672.6697998046875 -1080.0V-883.9964599609375Q4620.3369140625 -898.3297729492188 4555.670562744141 -892.1632080078125Q4491.004211425781 -885.9966430664062 4437.337890625 -850.6640625Q4386.338073730469 -818.3313598632812 4356.504547119141 -770.9986877441406Q4326.6710205078125 -723.666015625 4313.6707763671875 -666.16650390625Q4300.6705322265625 -608.6669921875 4300.6705322265625 -545.333740234375V0.0Z M5401.0018310546875 0.0Q5299.334533691406 20.00006103515625 5201.333953857422 16.83343505859375Q5103.3333740234375 13.66680908203125 5026.332916259766 -21.16656494140625Q4949.332458496094 -55.99993896484375 4909.66552734375 -131.33349609375Q4874.99853515625 -198.33392333984375 4872.665222167969 -267.50103759765625Q4870.3319091796875 -336.66815185546875 4870.3319091796875 -424.668701171875V-1380.0H5079.6690673828125V-435.335693359375Q5079.6690673828125 -370.00250244140625 5081.1690673828125 -322.0023498535156Q5082.6690673828125 -274.002197265625 5101.6690673828125 -241.335693359375Q5137.6690673828125 -179.33599853515625 5216.335754394531 -170.50289916992188Q5295.00244140625 -161.6697998046875 5401.0018310546875 -177.3363037109375ZM4663.0 -911.9974365234375V-1080H5401.0018310546875V-911.9974365234375Z M5548.0 0V-1440H6130.0015869140625Q6151.0015869140625 -1440.0 6182.001861572266 -1438.5Q6213.002136230469 -1437.0 6240.6688232421875 -1432.0Q6361.335998535156 -1413.333251953125 6441.836120605469 -1350.1664733886719Q6522.336242675781 -1286.9996948242188 6562.169525146484 -1191.1661987304688Q6602.0028076171875 -1095.3327026367188 6602.0028076171875 -978.665771484375Q6602.0028076171875 -861.9988403320312 6561.836181640625 -766.1653442382812Q6521.6695556640625 -670.3318481445312 6441.16943359375 -607.1650695800781Q6360.6693115234375 -543.998291015625 6240.6688232421875 -525.33154296875Q6213.002136230469 -521.33154296875 6181.668518066406 -519.33154296875Q6150.334899902344 -517.33154296875 6130.0015869140625 -517.33154296875H5757.337158203125V0.0ZM5757.337158203125 -714.6683349609375H6122.0013427734375Q6141.6680908203125 -714.6683349609375 6166.168121337891 -716.6683349609375Q6190.668151855469 -718.6683349609375 6212.6680908203125 -724.001708984375Q6277.0008544921875 -739.3350219726562 6315.833648681641 -779.6680603027344Q6354.666442871094 -820.0010986328125 6371.999420166016 -872.8338623046875Q6389.3323974609375 -925.6666259765625 6389.3323974609375 -978.665771484375Q6389.3323974609375 -1031.6649169921875 6371.999420166016 -1084.4976806640625Q6354.666442871094 -1137.3304443359375 6315.833648681641 -1177.6634826660156Q6277.0008544921875 -1217.9965209960938 6212.6680908203125 -1233.329833984375Q6190.668151855469 -1238.9965209960938 6166.168121337891 -1240.8298645019531Q6141.6680908203125 -1242.6632080078125 6122.0013427734375 -1242.6632080078125H5757.337158203125Z M6742.0 -1257.3316650390625V-1460.0006103515625H6951.337158203125V-1257.3316650390625ZM6742.0 0V-1080H6951.337158203125V0.0Z"/>
        <rect x="7351.0" y="-2252.0" width="4864.0" height="3052.0" rx="960.0" fill="none" stroke="#FFC72C" stroke-width="160.0"/>
        <path fill="#FFC72C" d="M8651.667724609375 30.0Q8436.001037597656 30.0 8283.834106445312 -64.6666259765625Q8131.667175292969 -159.333251953125 8051.333587646484 -328.333251953125Q7971.0 -497.333251953125 7971.0 -720Q7971.0 -942.666748046875 8051.333587646484 -1111.666748046875Q8131.667175292969 -1280.666748046875 8283.834106445312 -1375.3333740234375Q8436.001037597656 -1470.0 8651.667724609375 -1470.0Q8867.334411621094 -1470.0 9019.501342773438 -1375.3333740234375Q9171.668273925781 -1280.666748046875 9252.001861572266 -1111.666748046875Q9332.33544921875 -942.666748046875 9332.33544921875 -720.0Q9332.33544921875 -497.333251953125 9252.001861572266 -328.333251953125Q9171.668273925781 -159.333251953125 9019.501342773438 -64.6666259765625Q8867.334411621094 30.0 8651.667724609375 30.0ZM8651.667724609375 -168.670166015625Q8804.666748046875 -167.3367919921875 8906.499420166016 -236.50296020507812Q9008.332092285156 -305.66912841796875 9059.331756591797 -430.33502197265625Q9110.331420898438 -555.0009155273438 9110.331420898438 -720.0Q9110.331420898438 -884.9990844726562 9059.331756591797 -1008.4982604980469Q9008.332092285156 -1131.9974365234375 8906.499420166016 -1200.9969482421875Q8804.666748046875 -1269.9964599609375 8651.667724609375 -1271.329833984375Q8498.668701171875 -1272.6632080078125 8397.169342041016 -1203.6636962890625Q8295.669982910156 -1134.6641845703125 8244.670318603516 -1009.8316345214844Q8193.670654296875 -884.9990844726562 8193.004028320312 -720.0Q8192.33740234375 -555.0009155273438 8243.33706665039 -431.66839599609375Q8294.336730957031 -308.33587646484375 8396.502716064453 -239.16970825195312Q8498.668701171875 -170.0035400390625 8651.667724609375 -168.670166015625Z M10209.998657226562 0.0V-530.6654052734375Q10209.998657226562 -593.9971313476562 10199.499053955078 -660.49658203125Q10188.999450683594 -726.9960327148438 10159.666625976562 -784.1627502441406Q10130.333801269531 -841.3294677734375 10076.834167480469 -876.3297119140625Q10023.334533691406 -911.3299560546875 9937.33447265625 -911.3299560546875Q9881.00244140625 -911.3299560546875 9831.169708251953 -892.4971008300781Q9781.336975097656 -873.6642456054688 9743.670471191406 -832.6648254394531Q9706.003967285156 -791.6654052734375 9684.33724975586 -724.9990844726562Q9662.670532226562 -658.332763671875 9662.670532226562 -561.9991455078125L9532.6689453125 -610.6673583984375Q9532.6689453125 -757.6661987304688 9587.668762207031 -870.1661682128906Q9642.668579101562 -982.6661376953125 9745.835327148438 -1045.9998168945312Q9849.002075195312 -1109.33349609375 9994.669555664062 -1109.33349609375Q10106.670471191406 -1109.33349609375 10182.837371826172 -1072.999755859375Q10259.004272460938 -1036.666015625 10306.504089355469 -978.1655578613281Q10354.00390625 -919.6651000976562 10379.003540039062 -850.9982604980469Q10404.003173828125 -782.3314208984375 10413.002868652344 -716.1651916503906Q10422.002563476562 -649.9989624023438 10422.002563476562 -600.0003662109375V0.0ZM9450.666625976562 0.0V-1080.0H9638.003295898438V-767.9971923828125H9662.670532226562V0.0Z M11081.334716796875 30.0Q10919.667785644531 30.0 10798.500793457031 -40.666717529296875Q10677.333801269531 -111.33343505859375 10609.666900634766 -237.66671752929688Q10542.0 -364 10542.0 -530.6663818359375Q10542.0 -707.6663818359375 10608.500213623047 -837.6664428710938Q10675.000427246094 -967.66650390625 10793.834014892578 -1038.833251953125Q10912.667602539062 -1110.0 11070.667724609375 -1110.0Q11235.668029785156 -1110.0 11351.668212890625 -1033.3331298828125Q11467.668395996094 -956.666259765625 11525.168365478516 -815.666015625Q11582.668334960938 -674.665771484375 11571.334655761719 -481.332275390625H11361.997680664062V-557.333740234375Q11359.997802734375 -744.9990234375 11290.498840332031 -834.831298828125Q11220.999877929688 -924.66357421875 11078.66796875 -924.66357421875Q10922.002380371094 -924.66357421875 10843.003204345703 -825.8311157226562Q10764.004028320312 -726.9986572265625 10764.004028320312 -540.0Q10764.004028320312 -362.3349609375 10843.003204345703 -264.83587646484375Q10922.002380371094 -167.3367919921875 11070.667724609375 -167.3367919921875Q11168.666625976562 -167.3367919921875 11240.332397460938 -211.6695556640625Q11311.998168945312 -256.0023193359375 11351.99755859375 -339.3345947265625L11556.668334960938 -274.00048828125Q11494.001770019531 -129.3336181640625 11366.001556396484 -49.66680908203125Q11238.001342773438 30.0 11081.334716796875 30.0ZM10696.003051757812 -481.332275390625V-644.0013427734375H11466.666381835938V-481.332275390625Z"/>
      </g>
</svg>
