<?xml version="1.0" encoding="UTF-8"?>
<svg id="Rhino" xmlns="http://www.w3.org/2000/svg" viewBox="0 0 1341.25 253.17">
  <defs>
    <style>
      .cls-1 {
        fill: #ffca2b;
        stroke-width: 0px;
      }
    </style>
  </defs>
  <g>
    <path class="cls-1" d="M613.83,39.92h36.84c2.59,0,4.98,1.35,6.32,3.57l39.19,65.06c2.84,4.72,9.67,4.77,12.58.09l40.53-65.24c1.35-2.17,3.71-3.48,6.26-3.48h36.44c5.85,0,9.37,6.49,6.18,11.4l-70.95,109.1c-.78,1.2-1.19,2.59-1.19,4.02v77.47c0,4.07-3.3,7.37-7.37,7.37h-32.51c-4.07,0-7.37-3.3-7.37-7.37v-76.62c0-1.4-.4-2.77-1.15-3.96l-70-110.08c-3.12-4.91.4-11.33,6.22-11.33Z"/>
    <path class="cls-1" d="M964.04,39.92h34.81c3.44,0,6.22,2.79,6.22,6.22v118.5c0,25.12-8.97,46.06-26.62,63.11-17.65,17.05-39.78,25.42-66.1,25.42s-48.45-8.37-66.1-25.42c-17.65-17.05-26.62-37.99-26.62-63.11V46.14c0-3.44,2.79-6.22,6.22-6.22h34.81c3.44,0,6.22,2.79,6.22,6.22v118.2c0,12.86,4.19,23.63,12.86,32.3,8.67,8.67,19.74,12.86,32.6,12.86s23.63-4.19,32.3-12.86c8.67-8.67,13.16-19.44,13.16-32.3V46.14c0-3.44,2.79-6.22,6.22-6.22Z"/>
    <path class="cls-1" d="M1031.39,243.06V46.14c0-3.44,2.79-6.22,6.22-6.22h37.1c2.24,0,4.31,1.21,5.42,3.16l63.07,111.65c2.38,4.22,8.47,4.22,10.84,0l62.79-111.63c1.1-1.96,3.18-3.17,5.42-3.17h37.1c3.44,0,6.22,2.79,6.22,6.22v196.92c0,3.44-2.79,6.22-6.22,6.22h-34.51c-3.44,0-6.22-2.79-6.22-6.22v-90.51c0-6.43-8.56-8.64-11.67-3.01l-40.99,74.1c-1.1,1.98-3.18,3.21-5.45,3.21h-24.07c-2.26,0-4.35-1.23-5.45-3.21l-40.99-74.1c-3.11-5.62-11.67-3.41-11.67,3.01v90.51c0,3.44-2.79,6.22-6.22,6.22h-34.51c-3.44,0-6.22-2.79-6.22-6.22Z"/>
    <path class="cls-1" d="M1293.7,118.98v124.08c0,3.44,2.79,6.22,6.22,6.22h35.11c3.44,0,6.22-2.79,6.22-6.22v-124.08c0-2.03-1.64-3.67-3.67-3.67h-40.22c-2.03,0-3.67,1.64-3.67,3.67Z"/>
    <rect class="cls-1" x="1293.7" y="89.92" width="47.56" height="10.1" rx="3.67" ry="3.67"/>
    <g>
      <path class="cls-1" d="M1341.25,53.93v-7.79c0-3.44-2.79-6.22-6.22-6.22h-35.11c-3.44,0-6.22,2.79-6.22,6.22v7.79c0,2.03,1.64,3.67,3.67,3.67h40.22c2.03,0,3.67-1.64,3.67-3.67Z"/>
      <rect class="cls-1" x="1293.7" y="67.2" width="47.56" height="10.1" rx="3.67" ry="3.67"/>
    </g>
  </g>
  <g>
    <rect class="cls-1" x="429.77" y="46.85" width="57.19" height="14.37" rx="7.18" ry="7.18"/>
    <rect class="cls-1" x="511.68" y="111.18" width="34.02" height="15.01" rx="7.18" ry="7.18"/>
    <rect class="cls-1" x="475.83" y="79.01" width="57.19" height="14.37" rx="7.18" ry="7.18"/>
    <rect class="cls-1" x="500.49" y="46.85" width="17.92" height="14.37" rx="7.18" ry="7.18"/>
    <rect class="cls-1" x="510.17" y="141.52" width="17.92" height="14.37" rx="7.18" ry="7.18"/>
    <path class="cls-1" d="M512.56,228.3c-7.68-19.66-5.03-17.86-8.52-23.74-8.47-14.27-17.76-13.27-21.81-26.36-2.11-6.82-1.93-13.34-1.82-17.27.11-3.92.35-12.4,2.14-17.58h-82.95c-4.46,0-8.37-3.29-8.8-7.72-.5-5.1,3.54-9.43,8.54-9.43h97.93c.35,0,1.39.07,1.39.07,3.95,0,7.18-3.23,7.18-7.18v-.71c0-3.95-3.23-7.18-7.18-7.18H220.9c-4.46,0-8.37-3.29-8.8-7.72-.38-3.83,1.81-7.23,5.04-8.68h240.93c4.72,0,8.58-3.86,8.58-8.58h0c0-4.72-3.86-8.58-8.58-8.58l-187.25,1.78c-7.13-2.86-6.95-13.22.5-15.72l2.04-.69,131.67-1.14c3.95,0,7.18-3.23,7.18-7.18v-.65c0-3.95-3.23-7.18-7.18-7.18h-159.82c-4.46,0-8.37-3.29-8.8-7.72-.5-5.1,3.54-9.43,8.54-9.43h19.65s114.9-.27,114.98-.19c3.95.14,6.91-3.43,6.91-6.99v-.65c0-3.95-3.23-7.18-7.18-7.18h-131.64c-1.55-1.32-3.05-2.57-4.46-3.72-.37-.3-2.83-2.28-6.36-4.54-5.76-3.68-9.23-6-13.63-6.36-3.39-.28-6.17.65-8.51,1.62-27.15,11.3-72.38,52.01-72.38,52.01-.89.8-4.46,4.01-9.19,8.48-1.37,1.3-2.84,2.7-4.44,4.25-12.17,11.8-23.63,24.54-23.63,24.54-.85.93-1.26,1.41-2.73,2.73-2.7,2.43-5.89,7.45-10.91,10-3.63,1.84-7.09,1.83-8.18,1.82-8.64-.12-14.15-6.72-15.45-5.45-.87.85,1.14,4.22,1.73,5.21,3.42,5.74,7.82,9.13,16.82,16.38,4.87,3.92,5.85,4.76,6.9,6.59.79,1.39,2.46,4.81,1.96,12-.42,6.02-1.26,18.07-8.32,21.63-8.15,4.1-18.94-6.06-21.81-2.73-2.77,3.21,6.66,12.1,3.64,19.09-2.83,6.55-14.77,7.2-16.36,7.27-27.26,1.19-47.94-33.74-51.81-30.9-2.16,1.59,2.92,14.27,10.91,25.45,14.51,20.31,41.59,39.83,57.65,39.87,1.59,0,6.64-.18,8.71,2.85,2.2,3.23-1.54,6.94,0,10.91,3.5,9,21.96,9.09,22.72,9.09,12.56-.06,21.59-6.85,28.18-11.82,2.71-2.04,35.09-27.49,32.72-60.9-.79-11.16-5.32-21.2-4.69-21.4.62-.2,2.3,10.3,9.23,20.49,9.7,14.25,25.5,21.77,39.01,28.2,6.17,2.93,11.73,5.07,18.59,10.62,2.68,2.17,8.13,6.94,12.39,14.61,2.65,4.78,3.98,7.16,3.63,10.19-.72,6.18-5.84,16.95-4.07,18.58,2.55,2.33,39.8,2.05,40.2,1.41.37-.61.56-1.83.71-2.86.2-1.31.14-2.01.1-4.18-.07-3.78.01-6.21-.08-7.95-.16-2.95-.07-1.68-.21-4.56-.59-11.78-1.66-28.13-1.2-33.15.05-.52.28-2.99.31-6.38,0-.71,0-1.45-.03-2.26-.17-5.48-.69-7.57-.28-7.72.79-.29,3.92,6.85,5.19,9.23,8.13,15.24,37.69,18.7,58.43,15.93,0,0,20.24-1.85,38.76-13.72,11.31-7.25,11.47-11.68,11.26-13.28-.21-1.56-1.23-2.21-2.74-4.53-4.39-6.72-9.14-14.68-8.77-14.95.42-.3,5.77,9.71,16.95,19.49,6,5.26,11.44,8.48,20.23,13.71,3.14,1.86,6.5,3.73,11.07,5.31,3.03,1.05,5.42,1.57,8.41,2.21,9.31,2,10.96,1.15,14.61,2.66,4.25,1.75,4.16,3.78,10.18,9.74,7.01,6.94,22.07,18.94,21.85,20-.04.18-.1.34-.1.34-.23.58-.69.9-.82.99-1.28.92-8.38,9.73-7.26,12.3,1.53,3.52,9.24,1.56,27.27,1.82,13.12.18,16.83,1.33,18.81-1.37,2.28-3.1-.42-7.59-5.75-21.25ZM96.25,164.13c-.95-.68,1.68-6.34,7.89-16.99l1.01,9.33c-5.18,5.64-8.15,8.2-8.9,7.66ZM367.17,143.35h-50.75c-4.72,0-8.58-3.86-8.58-8.58s3.86-8.58,8.58-8.58h50.75c4.72,0,8.58,3.86,8.58,8.58s-3.86,8.58-8.58,8.58Z"/>
  </g>
</svg>