<?xml version="1.0" encoding="UTF-8"?>
<svg id="Rhino" xmlns="http://www.w3.org/2000/svg" viewBox="0 0 862.39 250.28">
  <defs>
    <style>
      .cls-1 {
        fill: #ffca2b;
      }
    </style>
  </defs>
  <path class="cls-1" d="M8.67,0h43.23C54.94,0,57.75,1.59,59.32,4.19l45.99,76.36c3.34,5.54,11.35,5.6,14.77.1L167.63,4.09C169.21,1.55,171.99,0,174.99,0h42.77C224.62,0,228.75,7.62,225.01,13.37l-83.27,128.04c-.91,1.4-1.4,3.04-1.4,4.72v90.93c0,4.78-3.88,8.66-8.66,8.66h-38.15c-4.78,0-8.66-3.88-8.66-8.66v-89.92c0-1.65-.47-3.26-1.35-4.64L1.37,13.3C-2.3,7.54,1.84,0,8.67,0Z"/>
  <path class="cls-1" d="M419.68,0h40.86c4.03,0,7.3,3.27,7.3,7.3v139.07c0,29.49-10.53,54.06-31.24,74.07-20.71,20.01-46.69,29.84-77.58,29.84s-56.87-9.83-77.58-29.84c-20.71-20.01-31.24-44.58-31.24-74.07V7.3C250.21,3.27,253.48,0,257.51,0h40.86c4.03,0,7.3,3.27,7.3,7.3v138.72c0,15.09,4.91,27.73,15.09,37.91,10.18,10.18,23.17,15.09,38.26,15.09s27.73-4.91,37.91-15.09c10.18-10.18,15.44-22.82,15.44-37.91V7.3C412.38,3.27,415.65,0,419.68,0Z"/>
  <path class="cls-1" d="M498.73,238.41V7.3C498.73,3.27,502,0,506.03,0h43.55c2.63,0,5.06,1.42,6.36,3.71l74.02,131.03c2.8,4.95,9.93,4.95,12.72-.01L716.38,3.72C717.67,1.42,720.1,0,722.74,0h43.54c4.03,0,7.3,3.27,7.3,7.3v231.11c0,4.03-3.27,7.3-7.3,7.3h-40.5c-4.03,0-7.3-3.27-7.3-7.3v-106.22c0-7.54-10.04-10.14-13.69-3.54l-48.11,86.96c-1.29,2.32-3.73,3.77-6.39,3.77h-28.25c-2.66,0-5.1-1.44-6.39-3.77l-48.11-86.96c-3.65-6.6-13.69-4.01-13.69,3.54v106.22c0,4.03-3.27,7.3-7.3,7.3h-40.51c-4.03,0-7.3-3.27-7.3-7.3Z"/>
  <path class="cls-1" d="M806.57,92.79v145.63c0,4.03,3.27,7.3,7.3,7.3h41.21c4.03,0,7.3-3.27,7.3-7.3V92.79c0-2.38-1.93-4.31-4.31-4.31h-47.2c-2.38,0-4.31,1.93-4.31,4.31Z"/>
  <rect class="cls-1" x="806.57" y="58.68" width="55.81" height="11.85" rx="4.31" ry="4.31"/>
  <g>
    <path class="cls-1" d="M862.39,16.44V7.3c0-4.03-3.27-7.3-7.3-7.3h-41.21c-4.03,0-7.3,3.27-7.3,7.3v9.14c0,2.38,1.93,4.31,4.31,4.31h47.2c2.38,0,4.31-1.93,4.31-4.31Z"/>
    <rect class="cls-1" x="806.57" y="32.01" width="55.81" height="11.85" rx="4.31" ry="4.31"/>
  </g>
</svg>